{"asset":{"version":"2.0","generator":"THREE.GLTFExporter"},"scenes":[{"name":"default","nodes":[0]}],"scene":0,"nodes":[{"matrix":[1,0,0,0,0,1,0,0,0,0,1,0,5.40625,0,3.593825,1],"name":"barstool_1-col","extras":{"data":{"name":"barstool_1-col","points":[{"name":"Origin","pos":{"x":0,"y":0,"z":0}}],"billboard":{"enabled":false,"y":false},"directional":{"enabled":false,"mode":"cameraAngle","angles":[]},"custom":[],"instance":{"name":"barstool_1-col","uuid":"13FDAF48-E44B-46DF-A36F-D9988EC1EC83","parent":null,"pos":{"x":5.405,"y":0,"z":3.595},"rot":{"x":0,"y":0,"z":0,"order":"XYZ"},"sca":{"x":1,"y":1,"z":1},"custom":[]}}},"mesh":0}],"bufferViews":[{"buffer":0,"byteOffset":0,"byteLength":96,"target":34962,"byteStride":12},{"buffer":0,"byteOffset":96,"byteLength":96,"target":34962,"byteStride":12},{"buffer":0,"byteOffset":192,"byteLength":64,"target":34962,"byteStride":8},{"buffer":0,"byteOffset":256,"byteLength":24,"target":34963}],"buffers":[{"byteLength":280,"uri":"data:application/octet-stream;base64,"}],"accessors":[{"bufferView":0,"componentType":5126,"count":8,"max":[0.625,1.25,-0.0625],"min":[-0.625,0,-0.6875],"type":"VEC3"},{"bufferView":1,"componentType":5126,"count":8,"max":[0,1,1],"min":[-0.0000400543212890625,-0.000040000675653573126,0],"type":"VEC3"},{"bufferView":2,"componentType":5126,"count":8,"max":[0.23828125,0.375],"min":[0.19921875,0.31640625],"type":"VEC2"},{"bufferView":3,"componentType":5123,"count":12,"max":[7],"min":[0],"type":"SCALAR"}],"materials":[{"pbrMetallicRoughness":{"metallicFactor":0,"roughnessFactor":1,"baseColorTexture":{"index":0}},"alphaMode":"BLEND","name":"furniture"}],"textures":[{"sampler":0,"source":0,"name":"furniture"}],"samplers":[{"magFilter":9728,"minFilter":9728,"wrapS":33071,"wrapT":33071}],"images":[{"mimeType":"image/png","uri":"data:image/png;base64,"}],"meshes":[{"primitives":[{"mode":4,"attributes":{"POSITION":0,"NORMAL":1,"TEXCOORD_0":2},"extras":{"indexNormals":[{"x":0,"y":1,"z":0},{"x":0,"y":1,"z":0},{"x":0,"y":1,"z":0},{"x":0,"y":1,"z":0},{"x":0,"y":1,"z":0},{"x":0,"y":1,"z":0},{"x":-0.000020027160636498586,"y":-0.000019973516456265225,"z":0.9999999995999858},{"x":-0.000020027160636498586,"y":-0.000019973516456265225,"z":0.9999999995999858},{"x":-0.0000400543212569319,"y":5.3644180254819504e-8,"z":0.9999999991978243},{"x":-0.000020027160636498586,"y":-0.000019973516456265225,"z":0.9999999995999858},{"x":0,"y":-0.00004000067707676303,"z":0.999999999199973},{"x":-0.000020027160636498586,"y":-0.000019973516456265225,"z":0.9999999995999858}]},"indices":3,"material":0}]}]}