{"asset":{"version":"2.0","generator":"THREE.GLTFExporter"},"scenes":[{"name":"default","nodes":[0]}],"scene":0,"nodes":[{"matrix":[1,0,0,0,0,1,0,0,0,0,1,0,-5.875,0.375,-1.2501000000006321,1],"name":"table_long-col","extras":{"data":{"name":"table_long-col","points":[{"name":"Origin","pos":{"x":0,"y":0,"z":0}}],"billboard":{"enabled":false,"y":false},"directional":{"enabled":false,"mode":"cameraAngle","angles":[]},"custom":[],"instance":{"name":"table_long-col","uuid":"4706157D-AA84-467D-AAD0-D53B88633D22","parent":null,"pos":{"x":-5.875,"y":0.375,"z":-1.25},"rot":{"x":0,"y":0,"z":0,"order":"XYZ"},"sca":{"x":1,"y":1,"z":1},"custom":[]}}},"mesh":0}],"bufferViews":[{"buffer":0,"byteOffset":0,"byteLength":96,"target":34962,"byteStride":12},{"buffer":0,"byteOffset":96,"byteLength":96,"target":34962,"byteStride":12},{"buffer":0,"byteOffset":192,"byteLength":64,"target":34962,"byteStride":8},{"buffer":0,"byteOffset":256,"byteLength":24,"target":34963}],"buffers":[{"byteLength":280,"uri":"data:application/octet-stream;base64,"}],"accessors":[{"bufferView":0,"componentType":5126,"count":8,"max":[2.0625,1,0.00004999999873689376],"min":[-2.1875,0,-1.6249500513076782],"type":"VEC3"},{"bufferView":1,"componentType":5126,"count":8,"max":[0,1,1],"min":[0,-0.00004999999873689376,0],"type":"VEC3"},{"bufferView":2,"componentType":5126,"count":8,"max":[0.16015625,0.3125],"min":[0.02734375,0.23046875],"type":"VEC2"},{"bufferView":3,"componentType":5123,"count":12,"max":[7],"min":[0],"type":"SCALAR"}],"materials":[{"pbrMetallicRoughness":{"metallicFactor":0,"roughnessFactor":1,"baseColorTexture":{"index":0}},"alphaMode":"MASK","alphaCutoff":0.01,"name":"furniture"}],"textures":[{"sampler":0,"source":0,"name":"furniture"}],"samplers":[{"magFilter":9728,"minFilter":9728,"wrapS":33071,"wrapT":33071}],"images":[{"mimeType":"image/png","uri":"data:image/png;base64,"}],"meshes":[{"primitives":[{"mode":4,"attributes":{"POSITION":0,"NORMAL":1,"TEXCOORD_0":2},"extras":{"indexNormals":[{"x":0,"y":1,"z":0},{"x":0,"y":1,"z":0},{"x":0,"y":1,"z":0},{"x":0,"y":1,"z":0},{"x":0,"y":1,"z":0},{"x":0,"y":1,"z":0},{"x":0,"y":-0.000049999998674393765,"z":0.9999999987500001},{"x":0,"y":-0.000049999998674393765,"z":0.9999999987500001},{"x":0,"y":-0.000049999998674393765,"z":0.9999999987500001},{"x":0,"y":-0.000049999998674393765,"z":0.9999999987500001},{"x":0,"y":-0.000049999998674393765,"z":0.9999999987500001},{"x":0,"y":-0.000049999998674393765,"z":0.9999999987500001}]},"indices":3,"material":0}]}]}