{"asset":{"version":"2.0","generator":"THREE.GLTFExporter"},"scenes":[{"name":"default","nodes":[0]}],"scene":0,"nodes":[{"matrix":[1,0,0,0,0,1,0,0,0,0,1,0,12.375,0.0625,-3.1252750000000002,1],"name":"fridge-col","extras":{"data":{"name":"fridge-col","points":[{"name":"Origin","pos":{"x":0,"y":0,"z":0}}],"billboard":{"enabled":false,"y":false},"directional":{"enabled":false,"mode":"cameraAngle","angles":[]},"custom":[],"instance":{"name":"fridge-col","uuid":"15828640-B880-43D6-A3DE-B2F9B9885E70","parent":null,"pos":{"x":12.375,"y":0.065,"z":-3.125},"rot":{"x":0,"y":0,"z":0,"order":"XYZ"},"sca":{"x":1,"y":1,"z":1},"custom":[]}}},"mesh":0}],"bufferViews":[{"buffer":0,"byteOffset":0,"byteLength":96,"target":34962,"byteStride":12},{"buffer":0,"byteOffset":96,"byteLength":96,"target":34962,"byteStride":12},{"buffer":0,"byteOffset":192,"byteLength":64,"target":34962,"byteStride":8},{"buffer":0,"byteOffset":256,"byteLength":24,"target":34963}],"buffers":[{"byteLength":280,"uri":"data:application/octet-stream;base64,"}],"accessors":[{"bufferView":0,"componentType":5126,"count":8,"max":[1,2.3125,0.06247499957680702],"min":[-1,-0.0625,-0.8124750256538391],"type":"VEC3"},{"bufferView":1,"componentType":5126,"count":8,"max":[0,1,1],"min":[0,3.1370865904989387e-9,0],"type":"VEC3"},{"bufferView":2,"componentType":5126,"count":8,"max":[0.0625,0.5625],"min":[0,0.4609375],"type":"VEC2"},{"bufferView":3,"componentType":5123,"count":12,"max":[7],"min":[0],"type":"SCALAR"}],"materials":[{"pbrMetallicRoughness":{"metallicFactor":0,"roughnessFactor":1,"baseColorTexture":{"index":0}},"alphaMode":"BLEND","name":"furniture"}],"textures":[{"sampler":0,"source":0,"name":"furniture"}],"samplers":[{"magFilter":9728,"minFilter":9728,"wrapS":33071,"wrapT":33071}],"images":[{"mimeType":"image/png","uri":"data:image/png;base64,"}],"meshes":[{"primitives":[{"mode":4,"attributes":{"POSITION":0,"NORMAL":1,"TEXCOORD_0":2},"extras":{"indexNormals":[{"x":0,"y":1,"z":0},{"x":0,"y":1,"z":0},{"x":0,"y":1,"z":0},{"x":0,"y":1,"z":0},{"x":0,"y":1,"z":0},{"x":0,"y":1,"z":0},{"x":0,"y":3.137086567125822e-9,"z":1},{"x":0,"y":3.137086567125822e-9,"z":1},{"x":0,"y":3.137086567125822e-9,"z":1},{"x":0,"y":3.137086567125822e-9,"z":1},{"x":0,"y":3.137086567125822e-9,"z":1},{"x":0,"y":3.137086567125822e-9,"z":1}]},"indices":3,"material":0}]}]}