{"asset":{"version":"2.0","generator":"THREE.GLTFExporter"},"scenes":[{"name":"default","nodes":[0]}],"scene":0,"nodes":[{"matrix":[1,0,0,0,0,1,0,0,0,0,1,0,-5.9375,0.375,-1.3751000000006321,1],"name":"bench_booth-col","extras":{"data":{"name":"bench_booth-col","points":[{"name":"Origin","pos":{"x":0,"y":0,"z":0}}],"billboard":{"enabled":false,"y":false},"directional":{"enabled":false,"mode":"cameraAngle","angles":[]},"custom":[],"instance":{"name":"bench_booth-col","uuid":"D2469F29-0FF2-43FB-9FBC-3D65360E1B69","parent":null,"pos":{"x":-5.9350000000000005,"y":0.375,"z":-1.375},"rot":{"x":0,"y":0,"z":0,"order":"XYZ"},"sca":{"x":1,"y":1,"z":1},"custom":[]}}},"mesh":0}],"bufferViews":[{"buffer":0,"byteOffset":0,"byteLength":540,"target":34962,"byteStride":12},{"buffer":0,"byteOffset":540,"byteLength":540,"target":34962,"byteStride":12},{"buffer":0,"byteOffset":1080,"byteLength":360,"target":34962,"byteStride":8},{"buffer":0,"byteOffset":1440,"byteLength":144,"target":34963}],"buffers":[{"byteLength":1584,"uri":"data:application/octet-stream;base64,"}],"accessors":[{"bufferView":0,"componentType":5126,"count":45,"max":[4,1.625,0.000025238419766537845],"min":[-4.0625,0,-2.6249752044677734],"type":"VEC3"},{"bufferView":1,"componentType":5126,"count":45,"max":[0.000008707461347512435,1,1],"min":[-0.000133514404296875,-0.0000667572021484375,0],"type":"VEC3"},{"bufferView":2,"componentType":5126,"count":45,"max":[0.4375,0.1875],"min":[0.1875,0.0625],"type":"VEC2"},{"bufferView":3,"componentType":5123,"count":72,"max":[44],"min":[0],"type":"SCALAR"}],"materials":[{"pbrMetallicRoughness":{"metallicFactor":0,"roughnessFactor":1,"baseColorTexture":{"index":0}},"alphaMode":"MASK","alphaCutoff":0.01,"name":"furniture"}],"textures":[{"sampler":0,"source":0,"name":"furniture"}],"samplers":[{"magFilter":9728,"minFilter":9728,"wrapS":33071,"wrapT":33071}],"images":[{"mimeType":"image/png","uri":"data:image/png;base64,"}],"meshes":[{"primitives":[{"mode":4,"attributes":{"POSITION":0,"NORMAL":1,"TEXCOORD_0":2},"extras":{"indexNormals":[{"x":0,"y":0,"z":1},{"x":0,"y":0,"z":1},{"x":0,"y":0,"z":1},{"x":0,"y":0,"z":1},{"x":0,"y":0,"z":1},{"x":0,"y":0,"z":1},{"x":0,"y":0,"z":1},{"x":0,"y":0,"z":1},{"x":0,"y":0,"z":1},{"x":0,"y":0,"z":1},{"x":0,"y":0,"z":1},{"x":0,"y":0,"z":1},{"x":0,"y":1,"z":0},{"x":0,"y":1,"z":0},{"x":0,"y":1,"z":0},{"x":0,"y":1,"z":0},{"x":0,"y":1,"z":0},{"x":0,"y":1,"z":0},{"x":0,"y":1,"z":0},{"x":0,"y":1,"z":0},{"x":-0.000004841322531858197,"y":0.7071303830277688,"z":0.7070831785409426},{"x":0,"y":1,"z":0},{"x":0,"y":1,"z":0},{"x":0,"y":1,"z":0},{"x":0,"y":1,"z":0},{"x":0,"y":1,"z":0},{"x":0,"y":1,"z":0},{"x":0,"y":1,"z":0},{"x":0,"y":1,"z":0},{"x":0,"y":1,"z":0},{"x":-0.0000030619416570025183,"y":0.8944331621050129,"z":0.4472016530799637},{"x":0,"y":1,"z":0},{"x":0,"y":1,"z":0},{"x":-0.0000030619416570025183,"y":0.8944331621050129,"z":0.4472016530799637},{"x":-0.000004841322531858197,"y":0.7071303830277688,"z":0.7070831785409426},{"x":0,"y":1,"z":0},{"x":0,"y":1,"z":0},{"x":0,"y":1,"z":0},{"x":0,"y":1,"z":0},{"x":0,"y":1,"z":0},{"x":0,"y":1,"z":0},{"x":0,"y":1,"z":0},{"x":-0.000044504801128478036,"y":-0.000010340294715547034,"z":0.9999999989562004},{"x":-0.00006675720171010126,"y":-0.000015510442077359615,"z":0.9999999976514511},{"x":-0.000133514403106854,"y":-1.0493385977647228e-7,"z":0.9999999910869467},{"x":-0.000044504801128478036,"y":-0.000010340294715547034,"z":0.9999999989562004},{"x":0,"y":-0.00003091595022213901,"z":0.9999999995221021},{"x":-0.00006675720171010126,"y":-0.000015510442077359615,"z":0.9999999976514511},{"x":0,"y":0,"z":1},{"x":0,"y":0,"z":1},{"x":0,"y":0,"z":1},{"x":0,"y":0,"z":1},{"x":-0.000044504801128478036,"y":-0.000010340294715547034,"z":0.9999999989562004},{"x":0,"y":0,"z":1},{"x":0,"y":1,"z":0},{"x":0,"y":1,"z":0},{"x":0,"y":1,"z":0},{"x":0,"y":1,"z":0},{"x":0,"y":1,"z":0},{"x":0,"y":1,"z":0},{"x":0.000004353730567498372,"y":-0.00003337860101748752,"z":0.9999999994334572},{"x":0.000004353730567498372,"y":-0.00003337860101748752,"z":0.9999999994334572},{"x":0.000008707461130063592,"y":-0.0000667572019971542,"z":0.9999999977338282},{"x":0.000004353730567498372,"y":-0.00003337860101748752,"z":0.9999999994334572},{"x":0,"y":0,"z":1},{"x":0.000004353730567498372,"y":-0.00003337860101748752,"z":0.9999999994334572},{"x":0,"y":0.4472135963055513,"z":0.8944271905971192},{"x":0,"y":0.4472135963055513,"z":0.8944271905971192},{"x":-0.0000030619416570025183,"y":0.8944331621050129,"z":0.4472016530799637},{"x":0,"y":0,"z":1},{"x":0.00000684689251262771,"y":-0.00006675720199812017,"z":0.9999999977482981},{"x":0,"y":0,"z":1}]},"indices":3,"material":0}]}]}