{"asset":{"version":"2.0","generator":"THREE.GLTFExporter"},"scenes":[{"name":"default","nodes":[0]}],"scene":0,"nodes":[{"name":"duplicator-col","extras":{"data":{"name":"duplicator-col","points":[{"name":"Origin","pos":{"x":0,"y":0,"z":0}}],"billboard":{"enabled":false,"y":false},"directional":{"enabled":false,"mode":"cameraAngle","angles":[]},"custom":[],"instance":{"name":"duplicator-col","uuid":"FC73C047-BD91-4DD9-91DC-E85455A14FAE","parent":null,"pos":{"x":0,"y":0,"z":0},"rot":{"x":0,"y":0,"z":0,"order":"XYZ"},"sca":{"x":1,"y":1,"z":1},"custom":[]}}},"mesh":0}],"bufferViews":[{"buffer":0,"byteOffset":0,"byteLength":288,"target":34962,"byteStride":12},{"buffer":0,"byteOffset":288,"byteLength":288,"target":34962,"byteStride":12},{"buffer":0,"byteOffset":576,"byteLength":192,"target":34962,"byteStride":8},{"buffer":0,"byteOffset":768,"byteLength":72,"target":34963}],"buffers":[{"byteLength":840,"uri":"data:application/octet-stream;base64,"}],"accessors":[{"bufferView":0,"componentType":5126,"count":24,"max":[1.3125,2.5625,0],"min":[-1.3125,0,-0.6875],"type":"VEC3"},{"bufferView":1,"componentType":5126,"count":24,"max":[1,1,1],"min":[-1,0,0],"type":"VEC3"},{"bufferView":2,"componentType":5126,"count":24,"max":[0.9140625,1],"min":[0.5859375,0.03125],"type":"VEC2"},{"bufferView":3,"componentType":5123,"count":36,"max":[23],"min":[0],"type":"SCALAR"}],"materials":[{"pbrMetallicRoughness":{"metallicFactor":0,"roughnessFactor":1,"baseColorTexture":{"index":0}},"alphaMode":"BLEND","name":"1"}],"textures":[{"sampler":0,"source":0,"name":"1"}],"samplers":[{"magFilter":9728,"minFilter":9728,"wrapS":33071,"wrapT":33071}],"images":[{"mimeType":"image/png","uri":"data:image/png;base64,"}],"meshes":[{"primitives":[{"mode":4,"attributes":{"POSITION":0,"NORMAL":1,"TEXCOORD_0":2},"extras":{"indexNormals":[{"x":0,"y":0,"z":1},{"x":0,"y":0,"z":1},{"x":0,"y":0,"z":1},{"x":0,"y":0,"z":1},{"x":0,"y":0,"z":1},{"x":0,"y":0,"z":1},{"x":0,"y":1,"z":0},{"x":0,"y":1,"z":0},{"x":0,"y":1,"z":0},{"x":0,"y":1,"z":0},{"x":0,"y":1,"z":0},{"x":0,"y":1,"z":0},{"x":1,"y":0,"z":0},{"x":1,"y":0,"z":0},{"x":1,"y":0,"z":0},{"x":1,"y":0,"z":0},{"x":1,"y":0,"z":0},{"x":1,"y":0,"z":0},{"x":-1,"y":0,"z":0},{"x":-1,"y":0,"z":0},{"x":-1,"y":0,"z":0},{"x":-1,"y":0,"z":0},{"x":-1,"y":0,"z":0},{"x":-1,"y":0,"z":0},{"x":0,"y":0,"z":1},{"x":0,"y":0,"z":1},{"x":0,"y":0,"z":1},{"x":0,"y":0,"z":1},{"x":0,"y":0,"z":1},{"x":0,"y":0,"z":1},{"x":0,"y":1,"z":0},{"x":0,"y":1,"z":0},{"x":0,"y":1,"z":0},{"x":0,"y":1,"z":0},{"x":0,"y":1,"z":0},{"x":0,"y":1,"z":0}]},"indices":3,"material":0}]}]}