{"asset":{"version":"2.0","generator":"THREE.GLTFExporter"},"scenes":[{"name":"default","nodes":[0,1,2,3]}],"scene":0,"nodes":[{"matrix":[1,0,0,0,0,1,0,0,0,0,1,0,4.25,2.75,-4.12515,1],"name":"shelf-col","extras":{"data":{"name":"shelf-col","points":[{"name":"Origin","pos":{"x":0,"y":0,"z":0}}],"billboard":{"enabled":false,"y":false},"directional":{"enabled":false,"mode":"cameraAngle","angles":[]},"custom":[],"instance":{"name":"shelf-col","uuid":"8418F6AA-4B9D-4C64-B149-9A31F7104B2C","parent":null,"pos":{"x":4.25,"y":2.75,"z":-4.125},"rot":{"x":0,"y":0,"z":0,"order":"XYZ"},"sca":{"x":1,"y":1,"z":1},"custom":[]}}},"mesh":0},{"matrix":[1,0,0,0,0,1,0,0,0,0,1,0,4.25,1.875,-4.12515,1],"name":"shelf-col","extras":{"data":{"name":"shelf-col","points":[{"name":"Origin","pos":{"x":0,"y":0,"z":0}}],"billboard":{"enabled":false,"y":false},"directional":{"enabled":false,"mode":"cameraAngle","angles":[]},"custom":[],"instance":{"name":"shelf-col","uuid":"222FCD40-FBC9-4559-A92A-980280DFD582","parent":null,"pos":{"x":4.25,"y":1.875,"z":-4.125},"rot":{"x":0,"y":0,"z":0,"order":"XYZ"},"sca":{"x":1,"y":1,"z":1},"custom":[]}}},"mesh":1},{"matrix":[1,0,0,0,0,1,0,0,0,0,1,0,7.875,1.875,-4.12515,1],"name":"shelf-col","extras":{"data":{"name":"shelf-col","points":[{"name":"Origin","pos":{"x":0,"y":0,"z":0}}],"billboard":{"enabled":false,"y":false},"directional":{"enabled":false,"mode":"cameraAngle","angles":[]},"custom":[],"instance":{"name":"shelf-col","uuid":"38B3A14C-EE6E-4F16-8B66-2C75D06A94A5","parent":null,"pos":{"x":7.875,"y":1.875,"z":-4.125},"rot":{"x":0,"y":0,"z":0,"order":"XYZ"},"sca":{"x":1,"y":1,"z":1},"custom":[]}}},"mesh":2},{"matrix":[1,0,0,0,0,1,0,0,0,0,1,0,7.875,2.75,-4.12515,1],"name":"shelf-col","extras":{"data":{"name":"shelf-col","points":[{"name":"Origin","pos":{"x":0,"y":0,"z":0}}],"billboard":{"enabled":false,"y":false},"directional":{"enabled":false,"mode":"cameraAngle","angles":[]},"custom":[],"instance":{"name":"shelf-col","uuid":"AC16DAEF-BB80-43AC-9791-67152877E990","parent":null,"pos":{"x":7.875,"y":2.75,"z":-4.125},"rot":{"x":0,"y":0,"z":0,"order":"XYZ"},"sca":{"x":1,"y":1,"z":1},"custom":[]}}},"mesh":3}],"bufferViews":[{"buffer":0,"byteOffset":0,"byteLength":96,"target":34962,"byteStride":12},{"buffer":0,"byteOffset":96,"byteLength":96,"target":34962,"byteStride":12},{"buffer":0,"byteOffset":192,"byteLength":64,"target":34962,"byteStride":8},{"buffer":0,"byteOffset":256,"byteLength":24,"target":34963},{"buffer":0,"byteOffset":280,"byteLength":96,"target":34962,"byteStride":12},{"buffer":0,"byteOffset":376,"byteLength":96,"target":34962,"byteStride":12},{"buffer":0,"byteOffset":472,"byteLength":64,"target":34962,"byteStride":8},{"buffer":0,"byteOffset":536,"byteLength":24,"target":34963},{"buffer":0,"byteOffset":560,"byteLength":96,"target":34962,"byteStride":12},{"buffer":0,"byteOffset":656,"byteLength":96,"target":34962,"byteStride":12},{"buffer":0,"byteOffset":752,"byteLength":64,"target":34962,"byteStride":8},{"buffer":0,"byteOffset":816,"byteLength":24,"target":34963},{"buffer":0,"byteOffset":840,"byteLength":96,"target":34962,"byteStride":12},{"buffer":0,"byteOffset":936,"byteLength":96,"target":34962,"byteStride":12},{"buffer":0,"byteOffset":1032,"byteLength":64,"target":34962,"byteStride":8},{"buffer":0,"byteOffset":1096,"byteLength":24,"target":34963}],"buffers":[{"byteLength":1120,"uri":"data:application/octet-stream;base64,"}],"accessors":[{"bufferView":0,"componentType":5126,"count":8,"max":[3,0.125,0.7498499751091003],"min":[0,0,0.12484999746084213],"type":"VEC3"},{"bufferView":1,"componentType":5126,"count":8,"max":[0,1,1],"min":[0,0,0],"type":"VEC3"},{"bufferView":2,"componentType":5126,"count":8,"max":[0.296875,0.3125],"min":[0.203125,0.29296875],"type":"VEC2"},{"bufferView":3,"componentType":5123,"count":12,"max":[7],"min":[0],"type":"SCALAR"},{"bufferView":4,"componentType":5126,"count":8,"max":[3,0.125,0.7498499751091003],"min":[0,0,0.12484999746084213],"type":"VEC3"},{"bufferView":5,"componentType":5126,"count":8,"max":[0,1,1],"min":[0,0,0],"type":"VEC3"},{"bufferView":6,"componentType":5126,"count":8,"max":[0.296875,0.3125],"min":[0.203125,0.29296875],"type":"VEC2"},{"bufferView":7,"componentType":5123,"count":12,"max":[7],"min":[0],"type":"SCALAR"},{"bufferView":8,"componentType":5126,"count":8,"max":[3,0.125,0.7498499751091003],"min":[0,0,0.12484999746084213],"type":"VEC3"},{"bufferView":9,"componentType":5126,"count":8,"max":[0,1,1],"min":[0,0,0],"type":"VEC3"},{"bufferView":10,"componentType":5126,"count":8,"max":[0.296875,0.3125],"min":[0.203125,0.29296875],"type":"VEC2"},{"bufferView":11,"componentType":5123,"count":12,"max":[7],"min":[0],"type":"SCALAR"},{"bufferView":12,"componentType":5126,"count":8,"max":[3,0.125,0.7498499751091003],"min":[0,0,0.12484999746084213],"type":"VEC3"},{"bufferView":13,"componentType":5126,"count":8,"max":[0,1,1],"min":[0,0,0],"type":"VEC3"},{"bufferView":14,"componentType":5126,"count":8,"max":[0.296875,0.3125],"min":[0.203125,0.29296875],"type":"VEC2"},{"bufferView":15,"componentType":5123,"count":12,"max":[7],"min":[0],"type":"SCALAR"}],"materials":[{"pbrMetallicRoughness":{"metallicFactor":0,"roughnessFactor":1,"baseColorTexture":{"index":0}},"alphaMode":"BLEND","name":"furniture"}],"textures":[{"sampler":0,"source":0,"name":"furniture"}],"samplers":[{"magFilter":9728,"minFilter":9728,"wrapS":33071,"wrapT":33071}],"images":[{"mimeType":"image/png","uri":"data:image/png;base64,"}],"meshes":[{"primitives":[{"mode":4,"attributes":{"POSITION":0,"NORMAL":1,"TEXCOORD_0":2},"extras":{"indexNormals":[{"x":0,"y":0,"z":1},{"x":0,"y":0,"z":1},{"x":0,"y":0,"z":1},{"x":0,"y":0,"z":1},{"x":0,"y":0,"z":1},{"x":0,"y":0,"z":1},{"x":0,"y":1,"z":0},{"x":0,"y":1,"z":0},{"x":0,"y":1,"z":0},{"x":0,"y":1,"z":0},{"x":0,"y":1,"z":0},{"x":0,"y":1,"z":0}]},"indices":3,"material":0}]},{"primitives":[{"mode":4,"attributes":{"POSITION":4,"NORMAL":5,"TEXCOORD_0":6},"extras":{"indexNormals":[{"x":0,"y":0,"z":1},{"x":0,"y":0,"z":1},{"x":0,"y":0,"z":1},{"x":0,"y":0,"z":1},{"x":0,"y":0,"z":1},{"x":0,"y":0,"z":1},{"x":0,"y":1,"z":0},{"x":0,"y":1,"z":0},{"x":0,"y":1,"z":0},{"x":0,"y":1,"z":0},{"x":0,"y":1,"z":0},{"x":0,"y":1,"z":0}]},"indices":7,"material":0}]},{"primitives":[{"mode":4,"attributes":{"POSITION":8,"NORMAL":9,"TEXCOORD_0":10},"extras":{"indexNormals":[{"x":0,"y":0,"z":1},{"x":0,"y":0,"z":1},{"x":0,"y":0,"z":1},{"x":0,"y":0,"z":1},{"x":0,"y":0,"z":1},{"x":0,"y":0,"z":1},{"x":0,"y":1,"z":0},{"x":0,"y":1,"z":0},{"x":0,"y":1,"z":0},{"x":0,"y":1,"z":0},{"x":0,"y":1,"z":0},{"x":0,"y":1,"z":0}]},"indices":11,"material":0}]},{"primitives":[{"mode":4,"attributes":{"POSITION":12,"NORMAL":13,"TEXCOORD_0":14},"extras":{"indexNormals":[{"x":0,"y":0,"z":1},{"x":0,"y":0,"z":1},{"x":0,"y":0,"z":1},{"x":0,"y":0,"z":1},{"x":0,"y":0,"z":1},{"x":0,"y":0,"z":1},{"x":0,"y":1,"z":0},{"x":0,"y":1,"z":0},{"x":0,"y":1,"z":0},{"x":0,"y":1,"z":0},{"x":0,"y":1,"z":0},{"x":0,"y":1,"z":0}]},"indices":15,"material":0}]}]}