{"asset":{"version":"2.0","generator":"THREE.GLTFExporter"},"scenes":[{"name":"default","nodes":[0]}],"scene":0,"nodes":[{"matrix":[1,0,0,0,0,1,0,0,0,0,1,0,5.771368716267489e-9,0,0,1],"name":"bolt-col","extras":{"data":{"name":"bolt-col","points":[{"name":"Origin","pos":{"x":0,"y":0,"z":0}}],"billboard":{"enabled":false,"y":false},"directional":{"enabled":false,"mode":"cameraAngle","angles":[]},"custom":[],"instance":{"name":"bolt-col","uuid":"AFC3E6A3-A6E1-4092-AB50-D27138EB55D9","parent":null,"pos":{"x":0,"y":0,"z":0},"rot":{"x":0,"y":0,"z":0,"order":"XYZ"},"sca":{"x":1,"y":1,"z":1},"custom":[]}}},"mesh":0}],"bufferViews":[{"buffer":0,"byteOffset":0,"byteLength":1092,"target":34962,"byteStride":12},{"buffer":0,"byteOffset":1092,"byteLength":1092,"target":34962,"byteStride":12},{"buffer":0,"byteOffset":2184,"byteLength":728,"target":34962,"byteStride":8},{"buffer":0,"byteOffset":2912,"byteLength":288,"target":34963},{"buffer":0,"byteOffset":3200,"byteLength":48,"target":34963}],"buffers":[{"byteLength":3248,"uri":"data:application/octet-stream;base64,"}],"accessors":[{"bufferView":0,"componentType":5126,"count":91,"max":[0.25,0.5,0.25],"min":[-0.25,-0.03125,-0.25],"type":"VEC3"},{"bufferView":1,"componentType":5126,"count":91,"max":[0.9675382375717163,1,0.9675382375717163],"min":[-0.9675382375717163,-1,-0.9675382375717163],"type":"VEC3"},{"bufferView":2,"componentType":5126,"count":91,"max":[0.9583333134651184,0.875],"min":[0.12737876176834106,0.0023787617683410645],"type":"VEC2"},{"bufferView":3,"componentType":5123,"count":144,"max":[81],"min":[0],"type":"SCALAR"},{"bufferView":4,"componentType":5123,"count":24,"max":[90],"min":[82],"type":"SCALAR"}],"materials":[{"pbrMetallicRoughness":{"metallicFactor":0,"roughnessFactor":1,"baseColorTexture":{"index":0}},"alphaMode":"MASK","alphaCutoff":0.01,"name":"0"},{"pbrMetallicRoughness":{"metallicFactor":0,"roughnessFactor":1,"baseColorTexture":{"index":1}},"alphaMode":"MASK","alphaCutoff":0.01,"name":"seamless"}],"textures":[{"sampler":0,"source":0,"name":"0"},{"sampler":1,"source":1,"name":"seamless"}],"samplers":[{"magFilter":9728,"minFilter":9728,"wrapS":33071,"wrapT":33071},{"magFilter":9728,"minFilter":9728,"wrapS":33071,"wrapT":33071}],"images":[{"mimeType":"image/png","uri":"data:image/png;base64,"},{"mimeType":"image/png","uri":"data:image/png;base64,"}],"meshes":[{"primitives":[{"mode":4,"attributes":{"POSITION":0,"NORMAL":1,"TEXCOORD_0":2},"extras":{"indexNormals":[{"x":-0.25272473256221173,"y":0,"z":0.9675382212353982},{"x":0.25272472366980336,"y":0,"z":0.9675382235581298},{"x":-0.5054494651244235,"y":0,"z":0.8628562094610167},{"x":-0.25272473256221173,"y":0,"z":0.9675382212353982},{"x":0.5054494473396067,"y":0,"z":0.8628562198791211},{"x":0.25272472366980336,"y":0,"z":0.9675382235581298},{"x":0.5054494473396067,"y":0,"z":0.8628562198791211},{"x":0.8628561990429122,"y":0,"z":0.5054494829092402},{"x":0.25272472366980336,"y":0,"z":0.9675382235581298},{"x":0.5054494473396067,"y":0,"z":0.8628562198791211},{"x":0.9675382189126668,"y":0,"z":0.2527247414546201},{"x":0.8628561990429122,"y":0,"z":0.5054494829092402},{"x":0.9675382189126668,"y":0,"z":0.2527247414546201},{"x":0.9675382189126668,"y":0,"z":-0.2527247414546201},{"x":0.8628561990429122,"y":0,"z":0.5054494829092402},{"x":0.9675382189126668,"y":0,"z":0.2527247414546201},{"x":0.8628561990429122,"y":0,"z":-0.5054494829092402},{"x":0.9675382189126668,"y":0,"z":-0.2527247414546201},{"x":0.8628561990429122,"y":0,"z":-0.5054494829092402},{"x":0.5054494473396067,"y":0,"z":-0.8628562198791211},{"x":0.9675382189126668,"y":0,"z":-0.2527247414546201},{"x":0.8628561990429122,"y":0,"z":-0.5054494829092402},{"x":0.25272472366980336,"y":0,"z":-0.9675382235581298},{"x":0.5054494473396067,"y":0,"z":-0.8628562198791211},{"x":0.25272472366980336,"y":0,"z":-0.9675382235581298},{"x":-0.25272473256221173,"y":0,"z":-0.9675382212353982},{"x":0.5054494473396067,"y":0,"z":-0.8628562198791211},{"x":0.25272472366980336,"y":0,"z":-0.9675382235581298},{"x":-0.5054494651244235,"y":0,"z":-0.8628562094610167},{"x":-0.25272473256221173,"y":0,"z":-0.9675382212353982},{"x":-0.5054494651244235,"y":0,"z":-0.8628562094610167},{"x":-0.8628562094610167,"y":0,"z":-0.5054494651244235},{"x":-0.25272473256221173,"y":0,"z":-0.9675382212353982},{"x":-0.5054494651244235,"y":0,"z":-0.8628562094610167},{"x":-0.9675382212353982,"y":0,"z":-0.25272473256221173},{"x":-0.8628562094610167,"y":0,"z":-0.5054494651244235},{"x":-0.9675382212353982,"y":0,"z":-0.25272473256221173},{"x":-0.9675382212353982,"y":0,"z":0.25272473256221173},{"x":-0.8628562094610167,"y":0,"z":-0.5054494651244235},{"x":-0.9675382212353982,"y":0,"z":-0.25272473256221173},{"x":-0.8628562094610167,"y":0,"z":0.5054494651244235},{"x":-0.9675382212353982,"y":0,"z":0.25272473256221173},{"x":-0.8628562094610167,"y":0,"z":0.5054494651244235},{"x":-0.5054494651244235,"y":0,"z":0.8628562094610167},{"x":-0.9675382212353982,"y":0,"z":0.25272473256221173},{"x":-0.8628562094610167,"y":0,"z":0.5054494651244235},{"x":-0.25272473256221173,"y":0,"z":0.9675382212353982},{"x":-0.5054494651244235,"y":0,"z":0.8628562094610167},{"x":0,"y":1,"z":0},{"x":0,"y":1,"z":0},{"x":0,"y":1,"z":0},{"x":0,"y":1,"z":0},{"x":0,"y":1,"z":0},{"x":0,"y":1,"z":0},{"x":0,"y":1,"z":0},{"x":0,"y":1,"z":0},{"x":0,"y":1,"z":0},{"x":0,"y":1,"z":0},{"x":0,"y":1,"z":0},{"x":0,"y":1,"z":0},{"x":0,"y":1,"z":0},{"x":0,"y":1,"z":0},{"x":0,"y":1,"z":0},{"x":0,"y":1,"z":0},{"x":0,"y":1,"z":0},{"x":0,"y":1,"z":0},{"x":0,"y":1,"z":0},{"x":0,"y":1,"z":0},{"x":0,"y":1,"z":0},{"x":0,"y":1,"z":0},{"x":0,"y":1,"z":0},{"x":0,"y":1,"z":0},{"x":0,"y":-1,"z":0},{"x":0,"y":-1,"z":0},{"x":0,"y":-1,"z":0},{"x":0,"y":-1,"z":0},{"x":0,"y":-1,"z":0},{"x":0,"y":-1,"z":0},{"x":0,"y":-1,"z":0},{"x":0,"y":-1,"z":0},{"x":0,"y":-1,"z":0},{"x":0,"y":-1,"z":0},{"x":0,"y":-1,"z":0},{"x":0,"y":-1,"z":0},{"x":0,"y":-1,"z":0},{"x":0,"y":-1,"z":0},{"x":0,"y":-1,"z":0},{"x":0,"y":-1,"z":0},{"x":0,"y":-1,"z":0},{"x":0,"y":-1,"z":0},{"x":0,"y":-1,"z":0},{"x":0,"y":-1,"z":0},{"x":0,"y":-1,"z":0},{"x":0,"y":-1,"z":0},{"x":0,"y":-1,"z":0},{"x":0,"y":-1,"z":0},{"x":-0.25272480650182255,"y":0,"z":0.9675382019220824},{"x":0.25272480650182255,"y":0,"z":0.9675382019220824},{"x":-0.5054496130036451,"y":0,"z":0.8628561228353575},{"x":-0.25272480650182255,"y":0,"z":0.9675382019220824},{"x":0.5054496130036451,"y":0,"z":0.8628561228353575},{"x":0.25272480650182255,"y":0,"z":0.9675382019220824},{"x":0.5054496130036451,"y":0,"z":0.8628561228353575},{"x":0.8628562960866486,"y":0,"z":0.5054493172451908},{"x":0.25272480650182255,"y":0,"z":0.9675382019220824},{"x":0.5054496130036451,"y":0,"z":0.8628561228353575},{"x":0.9675382405487095,"y":0,"z":0.2527246586225954},{"x":0.8628562960866486,"y":0,"z":0.5054493172451908},{"x":0.9675382405487095,"y":0,"z":0.2527246586225954},{"x":0.9675382405487095,"y":0,"z":-0.2527246586225954},{"x":0.8628562960866486,"y":0,"z":0.5054493172451908},{"x":0.9675382405487095,"y":0,"z":0.2527246586225954},{"x":0.8628562960866486,"y":0,"z":-0.5054493172451908},{"x":0.9675382405487095,"y":0,"z":-0.2527246586225954},{"x":0.8628562960866486,"y":0,"z":-0.5054493172451908},{"x":0.5054496130036451,"y":0,"z":-0.8628561228353575},{"x":0.9675382405487095,"y":0,"z":-0.2527246586225954},{"x":0.8628562960866486,"y":0,"z":-0.5054493172451908},{"x":0.25272480650182255,"y":0,"z":-0.9675382019220824},{"x":0.5054496130036451,"y":0,"z":-0.8628561228353575},{"x":0.25272480650182255,"y":0,"z":-0.9675382019220824},{"x":-0.25272480650182255,"y":0,"z":-0.9675382019220824},{"x":0.5054496130036451,"y":0,"z":-0.8628561228353575},{"x":0.25272480650182255,"y":0,"z":-0.9675382019220824},{"x":-0.5054496130036451,"y":0,"z":-0.8628561228353575},{"x":-0.25272480650182255,"y":0,"z":-0.9675382019220824},{"x":-0.5054496130036451,"y":0,"z":-0.8628561228353575},{"x":-0.8628562960866486,"y":0,"z":-0.5054493172451908},{"x":-0.25272480650182255,"y":0,"z":-0.9675382019220824},{"x":-0.5054496130036451,"y":0,"z":-0.8628561228353575},{"x":-0.9675382405487095,"y":0,"z":-0.2527246586225954},{"x":-0.8628562960866486,"y":0,"z":-0.5054493172451908},{"x":-0.9675382405487095,"y":0,"z":-0.2527246586225954},{"x":-0.9675382405487095,"y":0,"z":0.2527246586225954},{"x":-0.8628562960866486,"y":0,"z":-0.5054493172451908},{"x":-0.9675382405487095,"y":0,"z":-0.2527246586225954},{"x":-0.8628562960866486,"y":0,"z":0.5054493172451908},{"x":-0.9675382405487095,"y":0,"z":0.2527246586225954},{"x":-0.8628562960866486,"y":0,"z":0.5054493172451908},{"x":-0.5054496130036451,"y":0,"z":0.8628561228353575},{"x":-0.9675382405487095,"y":0,"z":0.2527246586225954},{"x":-0.8628562960866486,"y":0,"z":0.5054493172451908},{"x":-0.25272480650182255,"y":0,"z":0.9675382019220824},{"x":-0.5054496130036451,"y":0,"z":0.8628561228353575},{"x":0,"y":-1,"z":0},{"x":0,"y":-1,"z":0},{"x":0,"y":-1,"z":0},{"x":0,"y":-1,"z":0},{"x":0,"y":-1,"z":0},{"x":0,"y":-1,"z":0},{"x":0,"y":-1,"z":0},{"x":0,"y":-1,"z":0},{"x":0,"y":-1,"z":0},{"x":0,"y":-1,"z":0},{"x":0,"y":-1,"z":0},{"x":0,"y":-1,"z":0},{"x":0,"y":-1,"z":0},{"x":0,"y":-1,"z":0},{"x":0,"y":-1,"z":0},{"x":0,"y":-1,"z":0},{"x":0,"y":-1,"z":0},{"x":0,"y":-1,"z":0},{"x":0,"y":-1,"z":0},{"x":0,"y":-1,"z":0},{"x":0,"y":-1,"z":0},{"x":0,"y":-1,"z":0},{"x":0,"y":-1,"z":0},{"x":0,"y":-1,"z":0}]},"indices":3,"material":0},{"mode":4,"attributes":{"POSITION":0,"NORMAL":1,"TEXCOORD_0":2},"extras":{"indexNormals":[{"x":-0.25272473256221173,"y":0,"z":0.9675382212353982},{"x":0.25272472366980336,"y":0,"z":0.9675382235581298},{"x":-0.5054494651244235,"y":0,"z":0.8628562094610167},{"x":-0.25272473256221173,"y":0,"z":0.9675382212353982},{"x":0.5054494473396067,"y":0,"z":0.8628562198791211},{"x":0.25272472366980336,"y":0,"z":0.9675382235581298},{"x":0.5054494473396067,"y":0,"z":0.8628562198791211},{"x":0.8628561990429122,"y":0,"z":0.5054494829092402},{"x":0.25272472366980336,"y":0,"z":0.9675382235581298},{"x":0.5054494473396067,"y":0,"z":0.8628562198791211},{"x":0.9675382189126668,"y":0,"z":0.2527247414546201},{"x":0.8628561990429122,"y":0,"z":0.5054494829092402},{"x":0.9675382189126668,"y":0,"z":0.2527247414546201},{"x":0.9675382189126668,"y":0,"z":-0.2527247414546201},{"x":0.8628561990429122,"y":0,"z":0.5054494829092402},{"x":0.9675382189126668,"y":0,"z":0.2527247414546201},{"x":0.8628561990429122,"y":0,"z":-0.5054494829092402},{"x":0.9675382189126668,"y":0,"z":-0.2527247414546201},{"x":0.8628561990429122,"y":0,"z":-0.5054494829092402},{"x":0.5054494473396067,"y":0,"z":-0.8628562198791211},{"x":0.9675382189126668,"y":0,"z":-0.2527247414546201},{"x":0.8628561990429122,"y":0,"z":-0.5054494829092402},{"x":0.25272472366980336,"y":0,"z":-0.9675382235581298},{"x":0.5054494473396067,"y":0,"z":-0.8628562198791211},{"x":0.25272472366980336,"y":0,"z":-0.9675382235581298},{"x":-0.25272473256221173,"y":0,"z":-0.9675382212353982},{"x":0.5054494473396067,"y":0,"z":-0.8628562198791211},{"x":0.25272472366980336,"y":0,"z":-0.9675382235581298},{"x":-0.5054494651244235,"y":0,"z":-0.8628562094610167},{"x":-0.25272473256221173,"y":0,"z":-0.9675382212353982},{"x":-0.5054494651244235,"y":0,"z":-0.8628562094610167},{"x":-0.8628562094610167,"y":0,"z":-0.5054494651244235},{"x":-0.25272473256221173,"y":0,"z":-0.9675382212353982},{"x":-0.5054494651244235,"y":0,"z":-0.8628562094610167},{"x":-0.9675382212353982,"y":0,"z":-0.25272473256221173},{"x":-0.8628562094610167,"y":0,"z":-0.5054494651244235},{"x":-0.9675382212353982,"y":0,"z":-0.25272473256221173},{"x":-0.9675382212353982,"y":0,"z":0.25272473256221173},{"x":-0.8628562094610167,"y":0,"z":-0.5054494651244235},{"x":-0.9675382212353982,"y":0,"z":-0.25272473256221173},{"x":-0.8628562094610167,"y":0,"z":0.5054494651244235},{"x":-0.9675382212353982,"y":0,"z":0.25272473256221173},{"x":-0.8628562094610167,"y":0,"z":0.5054494651244235},{"x":-0.5054494651244235,"y":0,"z":0.8628562094610167},{"x":-0.9675382212353982,"y":0,"z":0.25272473256221173},{"x":-0.8628562094610167,"y":0,"z":0.5054494651244235},{"x":-0.25272473256221173,"y":0,"z":0.9675382212353982},{"x":-0.5054494651244235,"y":0,"z":0.8628562094610167},{"x":0,"y":1,"z":0},{"x":0,"y":1,"z":0},{"x":0,"y":1,"z":0},{"x":0,"y":1,"z":0},{"x":0,"y":1,"z":0},{"x":0,"y":1,"z":0},{"x":0,"y":1,"z":0},{"x":0,"y":1,"z":0},{"x":0,"y":1,"z":0},{"x":0,"y":1,"z":0},{"x":0,"y":1,"z":0},{"x":0,"y":1,"z":0},{"x":0,"y":1,"z":0},{"x":0,"y":1,"z":0},{"x":0,"y":1,"z":0},{"x":0,"y":1,"z":0},{"x":0,"y":1,"z":0},{"x":0,"y":1,"z":0},{"x":0,"y":1,"z":0},{"x":0,"y":1,"z":0},{"x":0,"y":1,"z":0},{"x":0,"y":1,"z":0},{"x":0,"y":1,"z":0},{"x":0,"y":1,"z":0},{"x":0,"y":-1,"z":0},{"x":0,"y":-1,"z":0},{"x":0,"y":-1,"z":0},{"x":0,"y":-1,"z":0},{"x":0,"y":-1,"z":0},{"x":0,"y":-1,"z":0},{"x":0,"y":-1,"z":0},{"x":0,"y":-1,"z":0},{"x":0,"y":-1,"z":0},{"x":0,"y":-1,"z":0},{"x":0,"y":-1,"z":0},{"x":0,"y":-1,"z":0},{"x":0,"y":-1,"z":0},{"x":0,"y":-1,"z":0},{"x":0,"y":-1,"z":0},{"x":0,"y":-1,"z":0},{"x":0,"y":-1,"z":0},{"x":0,"y":-1,"z":0},{"x":0,"y":-1,"z":0},{"x":0,"y":-1,"z":0},{"x":0,"y":-1,"z":0},{"x":0,"y":-1,"z":0},{"x":0,"y":-1,"z":0},{"x":0,"y":-1,"z":0},{"x":-0.25272480650182255,"y":0,"z":0.9675382019220824},{"x":0.25272480650182255,"y":0,"z":0.9675382019220824},{"x":-0.5054496130036451,"y":0,"z":0.8628561228353575},{"x":-0.25272480650182255,"y":0,"z":0.9675382019220824},{"x":0.5054496130036451,"y":0,"z":0.8628561228353575},{"x":0.25272480650182255,"y":0,"z":0.9675382019220824},{"x":0.5054496130036451,"y":0,"z":0.8628561228353575},{"x":0.8628562960866486,"y":0,"z":0.5054493172451908},{"x":0.25272480650182255,"y":0,"z":0.9675382019220824},{"x":0.5054496130036451,"y":0,"z":0.8628561228353575},{"x":0.9675382405487095,"y":0,"z":0.2527246586225954},{"x":0.8628562960866486,"y":0,"z":0.5054493172451908},{"x":0.9675382405487095,"y":0,"z":0.2527246586225954},{"x":0.9675382405487095,"y":0,"z":-0.2527246586225954},{"x":0.8628562960866486,"y":0,"z":0.5054493172451908},{"x":0.9675382405487095,"y":0,"z":0.2527246586225954},{"x":0.8628562960866486,"y":0,"z":-0.5054493172451908},{"x":0.9675382405487095,"y":0,"z":-0.2527246586225954},{"x":0.8628562960866486,"y":0,"z":-0.5054493172451908},{"x":0.5054496130036451,"y":0,"z":-0.8628561228353575},{"x":0.9675382405487095,"y":0,"z":-0.2527246586225954},{"x":0.8628562960866486,"y":0,"z":-0.5054493172451908},{"x":0.25272480650182255,"y":0,"z":-0.9675382019220824},{"x":0.5054496130036451,"y":0,"z":-0.8628561228353575},{"x":0.25272480650182255,"y":0,"z":-0.9675382019220824},{"x":-0.25272480650182255,"y":0,"z":-0.9675382019220824},{"x":0.5054496130036451,"y":0,"z":-0.8628561228353575},{"x":0.25272480650182255,"y":0,"z":-0.9675382019220824},{"x":-0.5054496130036451,"y":0,"z":-0.8628561228353575},{"x":-0.25272480650182255,"y":0,"z":-0.9675382019220824},{"x":-0.5054496130036451,"y":0,"z":-0.8628561228353575},{"x":-0.8628562960866486,"y":0,"z":-0.5054493172451908},{"x":-0.25272480650182255,"y":0,"z":-0.9675382019220824},{"x":-0.5054496130036451,"y":0,"z":-0.8628561228353575},{"x":-0.9675382405487095,"y":0,"z":-0.2527246586225954},{"x":-0.8628562960866486,"y":0,"z":-0.5054493172451908},{"x":-0.9675382405487095,"y":0,"z":-0.2527246586225954},{"x":-0.9675382405487095,"y":0,"z":0.2527246586225954},{"x":-0.8628562960866486,"y":0,"z":-0.5054493172451908},{"x":-0.9675382405487095,"y":0,"z":-0.2527246586225954},{"x":-0.8628562960866486,"y":0,"z":0.5054493172451908},{"x":-0.9675382405487095,"y":0,"z":0.2527246586225954},{"x":-0.8628562960866486,"y":0,"z":0.5054493172451908},{"x":-0.5054496130036451,"y":0,"z":0.8628561228353575},{"x":-0.9675382405487095,"y":0,"z":0.2527246586225954},{"x":-0.8628562960866486,"y":0,"z":0.5054493172451908},{"x":-0.25272480650182255,"y":0,"z":0.9675382019220824},{"x":-0.5054496130036451,"y":0,"z":0.8628561228353575},{"x":0,"y":-1,"z":0},{"x":0,"y":-1,"z":0},{"x":0,"y":-1,"z":0},{"x":0,"y":-1,"z":0},{"x":0,"y":-1,"z":0},{"x":0,"y":-1,"z":0},{"x":0,"y":-1,"z":0},{"x":0,"y":-1,"z":0},{"x":0,"y":-1,"z":0},{"x":0,"y":-1,"z":0},{"x":0,"y":-1,"z":0},{"x":0,"y":-1,"z":0},{"x":0,"y":-1,"z":0},{"x":0,"y":-1,"z":0},{"x":0,"y":-1,"z":0},{"x":0,"y":-1,"z":0},{"x":0,"y":-1,"z":0},{"x":0,"y":-1,"z":0},{"x":0,"y":-1,"z":0},{"x":0,"y":-1,"z":0},{"x":0,"y":-1,"z":0},{"x":0,"y":-1,"z":0},{"x":0,"y":-1,"z":0},{"x":0,"y":-1,"z":0}]},"indices":4,"material":1}]}]}